<svg width="28" height="26" viewBox="0 0 28 26" fill="none" xmlns="http://www.w3.org/2000/svg">
<path d="M23.9876 6.0625H3.77772C3.53162 6.0625 3.29417 6.15438 3.1108 6.32056C2.92742 6.48674 2.81101 6.71554 2.78383 6.96319L1.00606 23.1632C0.990524 23.3047 1.00465 23.448 1.04752 23.5836C1.09038 23.7192 1.16102 23.8442 1.25481 23.9503C1.34861 24.0564 1.46345 24.1412 1.59185 24.1994C1.72024 24.2575 1.8593 24.2875 1.99994 24.2875H25.7654C25.906 24.2875 26.0451 24.2575 26.1735 24.1994C26.3019 24.1412 26.4167 24.0564 26.5105 23.9503C26.6043 23.8442 26.675 23.7192 26.7178 23.5836C26.7607 23.448 26.7748 23.3047 26.7593 23.1632L24.9815 6.96319C24.9543 6.71554 24.8379 6.48674 24.6546 6.32056C24.4712 6.15438 24.2337 6.0625 23.9876 6.0625Z" stroke="white" stroke-width="2" stroke-linecap="round" stroke-linejoin="round"/>
<path d="M8.88263 10.1125V6.0625C8.88263 4.71984 9.40941 3.43217 10.3471 2.48277C11.2848 1.53337 12.5565 1 13.8826 1C15.2087 1 16.4805 1.53337 17.4182 2.48277C18.3558 3.43217 18.8826 4.71984 18.8826 6.0625V10.1125" stroke="white" stroke-width="2" stroke-linecap="round" stroke-linejoin="round"/>
</svg>
